<?xml version="1.0" standalone="no"?>
<!DOCTYPE svg PUBLIC "-//W3C//DTD SVG 20010904//EN"
 "http://www.w3.org/TR/2001/REC-SVG-20010904/DTD/svg10.dtd">
<svg version="1.0" xmlns="http://www.w3.org/2000/svg"
 width="333.000000pt" height="333.000000pt" viewBox="0 0 333.000000 333.000000"
 preserveAspectRatio="xMidYMid meet">
<metadata>
Created by potrace 1.11, written by Peter Selinger 2001-2013
</metadata>
<g transform="translate(0.000000,333.000000) scale(0.100000,-0.100000)"
fill="#000000" stroke="none">
<path d="M0 1665 l0 -1665 302 0 303 0 302 302 c276 276 303 300 303 273 0
-45 44 -129 92 -178 50 -49 120 -86 179 -94 l41 -6 -148 -148 -149 -149 1053
0 1052 0 0 1055 0 1055 -44 41 c-109 100 -107 273 5 373 l39 36 0 110 0 110
-202 0 -203 0 203 203 202 202 0 73 0 72 -1665 0 -1665 0 0 -1665z m1375 1335
l-220 -220 -340 0 c-206 0 -355 4 -378 11 -21 5 -53 24 -73 41 -101 89 -104
238 -6 331 59 56 58 56 672 57 l565 0 -220 -220z m1140 0 l-220 -220 -255 0
-255 0 220 220 220 220 255 0 255 0 -220 -220z m-2045 -1100 c97 -49 143 -132
139 -246 l-4 -74 105 -105 c58 -58 109 -105 114 -105 5 0 17 7 27 16 26 24
118 29 175 10 110 -36 177 -131 178 -248 0 -58 -3 -71 -24 -93 l-24 -26 102
-102 c97 -97 103 -101 124 -88 82 52 169 65 245 36 211 -81 229 -368 30 -469
-144 -73 -317 -2 -362 148 -19 64 -19 102 2 165 l16 52 -99 100 c-54 54 -104
99 -110 99 -7 0 -24 -14 -38 -31 -85 -101 -292 -35 -356 113 -17 40 -21 65
-18 115 4 57 7 67 43 103 l39 40 -101 102 -101 101 -43 -36 c-167 -143 -428
-33 -429 182 0 79 18 128 70 183 78 86 200 109 300 58z m2218 -46 c60 -36 95
-92 100 -164 8 -108 17 -95 -460 -580 -241 -245 -443 -446 -448 -448 -6 -2
-10 9 -10 25 0 15 -13 55 -29 88 -46 98 -134 166 -245 190 -29 6 -17 19 395
431 233 234 437 435 453 447 71 51 168 55 244 11z"/>
</g>
</svg>
